<svg width="28" height="28" viewBox="0 0 28 28" fill="none" xmlns="http://www.w3.org/2000/svg">
<g clip-path="url(#clip0_646_11018)">
<path d="M20.4014 4.32031C18.8599 4.41458 17.418 5.1146 16.3906 6.26758C15.3664 7.41708 14.8376 8.92375 14.917 10.4609H14.916C14.916 10.7039 14.8202 10.9375 14.6484 11.1094C14.4766 11.2812 14.243 11.3779 14 11.3779C13.7569 11.3779 13.5235 11.2813 13.3516 11.1094C13.1797 10.9375 13.083 10.704 13.083 10.4609C13.1624 8.92367 12.6327 7.4171 11.6084 6.26758C10.5811 5.11472 9.13993 4.41464 7.59863 4.32031L7.58301 4.31934L7.56738 4.32031C6.02613 4.4147 4.58491 5.11473 3.55762 6.26758C2.53028 7.42049 1.99976 8.93264 2.08301 10.4746C2.08747 12.2423 2.98152 14.3427 4.59766 16.6113C6.22227 18.8919 8.59668 21.3708 11.6045 23.8945C12.2749 24.459 13.1236 24.7686 14 24.7686C14.8762 24.7685 15.7242 24.4588 16.3945 23.8945L16.4844 23.8193V23.8135C19.4496 21.3182 21.793 18.8675 23.4014 16.6104C25.0175 14.3423 25.9116 12.2423 25.916 10.4746C25.9993 8.93272 25.4696 7.42047 24.4424 6.26758C23.415 5.1146 21.9731 4.41458 20.4316 4.32031L20.416 4.31934L20.4014 4.32031ZM0.25 10.4521C0.173452 8.42353 0.902303 6.44665 2.27832 4.9541C3.6533 3.46278 5.56253 2.57572 7.58887 2.48633C8.85515 2.50771 10.0936 2.86207 11.1797 3.51367C12.2685 4.16699 13.1663 5.09605 13.7812 6.20703L14 6.60254L14.2188 6.20703C14.8337 5.09618 15.7306 4.16695 16.8193 3.51367C17.9051 2.86223 19.1433 2.50798 20.4092 2.48633C22.4361 2.57534 24.3454 3.46245 25.7207 4.9541C27.0968 6.44668 27.8266 8.42344 27.75 10.4521V10.4609C27.75 13.0311 26.3939 15.7521 24.4238 18.3398C22.4583 20.9216 19.9067 23.3387 17.5723 25.2969C16.5718 26.1375 15.3068 26.5986 14 26.5986C12.6933 26.5986 11.4282 26.1375 10.4277 25.2969H10.4268C8.09237 23.3388 5.54167 20.9215 3.57617 18.3398C1.60613 15.7521 0.25 13.0311 0.25 10.4609V10.4521Z" fill="#CC5B72" stroke="black" stroke-width="0.5"/>
</g>
<defs>
<clipPath id="clip0_646_11018">
<rect width="28" height="28" fill="white"/>
</clipPath>
</defs>
</svg>
