<svg width="28" height="28" viewBox="0 0 28 28" fill="none" xmlns="http://www.w3.org/2000/svg">
<path d="M13.8003 0.27832C14.7342 0.153301 15.6754 0.447197 16.3726 1.08105C16.8644 1.52839 17.3524 1.95689 17.8315 2.37109L19.2397 3.57422C23.2975 7.02282 26.6843 9.91431 26.689 15.0664C26.6975 21.9 21.2768 27.5053 14.4468 27.7266L14.438 27.7275C14.298 27.7373 13.9362 27.7402 13.8979 27.7402C12.8264 27.734 11.7594 27.5993 10.7202 27.3379H10.7212C5.14017 25.8896 1.26236 20.8272 1.31689 15.0615V15.0576C1.29427 12.4968 2.22314 10.0248 3.91357 8.11719L4.26221 7.74316L4.27002 7.73438C4.45531 7.52645 4.6805 7.3577 4.93213 7.23828C5.97158 6.74492 7.21416 7.18808 7.70752 8.22754L7.7085 8.22949C7.87447 8.57176 8.06717 8.90023 8.28369 9.21289L8.61768 9.69727L8.73389 9.12012C9.26126 6.4947 10.2334 3.97883 11.6079 1.68066C12.0944 0.91144 12.897 0.397615 13.7993 0.27832H13.8003ZM13.9985 13.8564C13.5991 13.8553 13.2165 14.007 12.9282 14.2773L12.8101 14.4014C11.6089 15.8101 10.7074 17.1463 10.1304 18.377C9.59004 19.5293 9.32792 20.6024 9.38428 21.5615L9.3999 21.752L9.40088 21.7588C9.56004 22.9652 10.1959 24.0186 11.1538 24.7676L11.3501 24.9131C12.0349 25.4612 12.935 25.8288 13.8491 25.8984V25.8975C14.0087 25.9133 14.2005 25.897 14.2964 25.8877C16.703 25.6547 18.6096 23.7368 18.6167 21.2969L18.6021 20.9414C18.5335 20.0974 18.2279 19.1468 17.7183 18.1318C17.2075 17.1145 16.4866 16.0208 15.5767 14.8877L15.1753 14.4004C14.8843 14.053 14.4535 13.8538 14.0005 13.8564H13.9985ZM14.0396 2.0957C13.6744 2.14086 13.3484 2.34766 13.1509 2.6582L13.147 2.66504C11.8502 4.85971 10.9445 7.2629 10.4702 9.76758C10.3145 10.5278 9.72593 11.1253 8.96826 11.293L8.96533 11.2939C8.22489 11.4673 7.45189 11.1836 6.99951 10.5723L6.99854 10.5703L6.73486 10.2012C6.48118 9.82617 6.25552 9.43277 6.05908 9.02441L5.90674 8.70801L5.65771 8.95508C4.03465 10.5685 3.13177 12.7693 3.15381 15.0576C3.135 18.5593 4.80549 21.8555 7.64111 23.9102L8.37354 24.4414L8.01709 23.6094C7.81825 23.1452 7.68098 22.6573 7.60889 22.1582L7.58252 21.9434C7.32504 19.4665 8.58135 16.5323 11.4185 13.209C12.0631 12.4541 13.0068 12.0198 13.9995 12.0215H14.0044C14.9947 12.0223 15.9347 12.4593 16.5737 13.2158C17.4643 14.2737 18.4366 15.5823 19.1851 16.9863C19.9347 18.3927 20.4506 19.8774 20.4507 21.2939L20.4438 21.5742C20.4137 22.229 20.2829 22.8759 20.0562 23.4922L19.77 24.2705L20.439 23.7803C20.4604 23.7646 20.4823 23.7496 20.5083 23.7324L20.52 23.7402L20.6616 23.6299C23.2279 21.6436 24.7595 18.612 24.8433 15.3789L24.8472 15.0654C24.8467 10.726 21.9212 8.263 18.0493 4.97461V4.97363C17.3497 4.38154 16.6234 3.76266 15.8833 3.10742L15.1392 2.44043C14.8787 2.20256 14.5378 2.07581 14.189 2.08398L14.0396 2.0957Z" fill="#CC5B72" stroke="black" stroke-width="0.5"/>
</svg>
